<?xml version="1.0" encoding="iso-8859-1"?>
<!-- Generator: Adobe Illustrator 15.1.0, SVG Export Plug-In . SVG Version: 6.00 Build 0)  -->
<!DOCTYPE svg PUBLIC "-//W3C//DTD SVG 1.1//EN" "http://www.w3.org/Graphics/SVG/1.1/DTD/svg11.dtd">
<svg version="1.1" id="Layer_1" xmlns="http://www.w3.org/2000/svg" xmlns:xlink="http://www.w3.org/1999/xlink" x="0px" y="0px"
	 width="141.164px" height="58.36px" viewBox="0 0 141.164 58.36" style="enable-background:new 0 0 141.164 58.36;"
	 xml:space="preserve">
<g>
	<path style="fill:#E30613;" d="M125.472,0c1.276,0,2.394,0.476,3.322,1.424c0.932,0.943,1.405,2.094,1.405,3.396
		c0,1.332-0.464,2.468-1.394,3.412c-0.931,0.947-2.058,1.421-3.334,1.421c-1.301,0-2.423-0.474-3.334-1.421
		c-0.927-0.943-1.392-2.08-1.392-3.412c0-1.301,0.465-2.441,1.378-3.383C123.049,0.486,124.171,0,125.472,0L125.472,0z
		 M141.164,19.117v-2.932c0-2.77-2.248-5.024-5.021-5.024h-21.345c-2.773,0-5.021,2.254-5.021,5.024v11.04h23.812v1.675h-23.812
		v2.929c0,2.772,2.247,5.021,5.021,5.021h21.345c2.773,0,5.021-2.249,5.021-5.021V20.79h-23.809v-1.673H141.164z"/>
	<path style="fill:#00497B;" d="M10.959,10.962c5.337,0,7.103,0.963,7.103,3.17v2.448h-7.103c-3.493,0-4.336,1.526-4.336,7.426
		s0.843,7.426,4.336,7.426h7.103v2.448c0,2.207-1.766,3.17-7.103,3.17C3.854,37.05,0,33.156,0,24.006S3.854,10.962,10.959,10.962z
		 M9.995,9.798c-0.482,0-0.763-0.122-1.204-0.682l-3.21-4.175C5.42,4.742,5.42,4.5,5.42,4.34h2.487c0.523,0,0.723,0.121,1.286,0.602
		l1.645,1.525l1.646-1.525c0.561-0.481,0.762-0.602,1.284-0.602h2.487c0,0.161,0,0.402-0.159,0.602l-3.212,4.175
		c-0.441,0.561-0.722,0.682-1.204,0.682H9.995z M20.073,13.45c0-1.525,0.682-2.288,2.207-2.288h14.048v3.171
		c0,1.525-0.763,2.246-2.288,2.246h-7.546v4.616h8.428v5.218h-8.428v5.018h10.034v3.169c0,1.526-0.763,2.248-2.288,2.248H22.28
		c-1.525,0-2.207-0.762-2.207-2.287V13.45z M47.167,10.962c5.337,0,8.107,0.603,8.107,3.09v2.528h-7.303
		c-1.968,0-2.528,0.522-2.528,1.566c0,3.09,11.156,2.448,11.156,11.117c0,4.134-2.368,7.787-9.592,7.787
		c-4.735,0-8.467-0.764-8.467-3.09v-2.528h8.628c1.766,0,2.609-0.563,2.609-1.807c0-3.372-11.118-2.729-11.118-11.639
		C38.658,14.052,41.267,10.962,47.167,10.962z M65.833,22.923l6.423-10.596c0.602-1.044,0.962-1.165,1.805-1.165h6.021
		c0,0.402-0.08,0.722-0.321,1.123l-7.386,11.278l7.746,12.162c0.2,0.32,0.361,0.721,0.361,1.123h-5.819
		c-1.204,0-1.564-0.08-2.246-1.164L65.833,25.13v11.719h-6.421V13.45c0-1.525,0.682-2.288,2.207-2.288h4.215V22.923z M95.017,11.082
		c1.084,0,1.605,0.121,1.847,1.044l5.979,23.72c0.081,0.362,0.12,0.722,0.12,1.003h-5.257c-1.084,0-1.405-0.08-1.605-0.963
		l-1.245-5.137h-5.98l-1.164,5.137c-0.2,0.883-0.521,0.963-1.605,0.963h-5.218c0-0.281,0.039-0.602,0.12-1.003l5.979-23.72
		c0.241-0.923,0.765-1.044,1.847-1.044H95.017z M89.838,25.933h3.974l-1.925-8.228h-0.161L89.838,25.933z M93.972,9.197
		c-0.521,0.561-0.763,0.602-1.284,0.602H90.2c0-0.161,0-0.402,0.159-0.602l3.213-4.175c0.44-0.562,0.721-0.682,1.203-0.682h2.448
		c0.28,0,0.441,0.121,0.441,0.28c0,0.202-0.081,0.321-0.402,0.723L93.972,9.197z M3.577,45.21c1.768,0,2.972,0.04,2.972,0.924v0.521
		h-3.03c-0.904,0-1.486,0.402-1.486,1.044c0,2.088,5.059,1.486,5.059,4.859c0,1.646-1.084,2.89-3.917,2.89
		c-1.645,0-3.171,0-3.171-0.862v-0.563h3.374c1.203,0,1.766-0.421,1.766-1.325c0-1.907-5.04-1.526-5.04-4.898
		C0.104,46.194,1.409,45.21,3.577,45.21z M10.302,58.36H8.495V45.311h0.903c0.641,0,0.904,0.341,0.904,0.843v0.321
		c0.561-0.663,1.464-1.265,2.609-1.265c2.37,0,3.473,1.947,3.473,5.12c0,3.171-1.104,5.119-3.473,5.119
		c-1.145,0-2.048-0.602-2.609-1.264V58.36z M12.309,46.655c-0.784,0-1.485,0.362-2.007,0.844v5.621
		c0.521,0.482,1.223,0.844,2.007,0.844c1.566,0,2.207-1.285,2.207-3.634S13.875,46.655,12.309,46.655z M17.666,50.33
		c0-2.811,0.923-5.12,4.075-5.12c3.173,0,4.077,2.309,4.077,5.12s-0.903,5.119-4.077,5.119C18.589,55.448,17.666,53.14,17.666,50.33
		z M23.95,50.33c0-2.47-0.482-3.774-2.209-3.774c-1.706,0-2.207,1.304-2.207,3.774c0,2.469,0.501,3.774,2.207,3.774
		C23.468,54.104,23.95,52.798,23.95,50.33z M29.489,44.447c-0.241,0-0.361-0.06-0.602-0.341l-1.607-1.907
		C27.2,42.098,27.2,41.978,27.2,41.897h0.804c0.261,0,0.382,0.04,0.643,0.302l1.084,1.003l1.104-1.003
		c0.261-0.262,0.382-0.302,0.643-0.302h0.804c0,0.08,0,0.201-0.08,0.302l-1.607,1.907c-0.241,0.281-0.361,0.341-0.602,0.341H29.489z
		 M27.521,55.348V45.311h0.903c0.602,0,0.865,0.481,0.904,1.245c0.782-1.044,1.827-1.346,2.589-1.346
		c0.341,0,0.704,0.08,0.704,0.502v1.284H32.12c-1.466,0-2.209,0.361-2.791,0.844v7.508H27.521z M35.27,44.187h-1.807v-1.145
		c0-0.602,0.221-0.944,0.823-0.944h0.984V44.187z M33.462,45.311h0.964c0.621,0,0.843,0.341,0.843,0.943v9.094h-1.807V45.311z
		 M39.725,45.311h2.17v1.344h-2.17v6.124c0,0.863,0.102,1.185,0.743,1.185h1.427v0.462c0,0.783-0.723,0.963-1.727,0.963
		c-2.048,0-2.248-1.125-2.248-2.61v-6.124h-1.266v-1.003l1.266-0.341l0.641-1.606c0.202-0.421,0.341-0.602,0.704-0.602h0.46V45.311z
		 M49.823,54.023v0.461c0,0.783-1.064,0.963-3.273,0.963c-3.132,0-4.095-2.308-4.095-5.119s1.023-5.12,4.075-5.12
		c2.47,0,3.754,1.526,3.754,3.734c0,0.462,0,0.884-0.1,1.847h-5.843c0,2.329,0.784,3.232,2.411,3.232H49.823z M48.437,49.546
		c0.02-0.18,0.02-0.582,0.02-0.823c0-0.963-0.382-2.167-1.907-2.167c-1.386,0-2.129,0.883-2.209,2.991H48.437z M53.735,55.348
		h-1.807V43.042c0-0.602,0.219-0.944,0.823-0.944h0.984V55.348z M55.942,55.348V45.311h0.903c0.641,0,0.904,0.341,0.904,0.823v0.341
		c0.821-0.923,1.866-1.265,2.809-1.265c1.949,0,2.913,1.205,2.913,3.072v7.066h-1.787v-6.986c0-1.184-0.683-1.686-1.827-1.686
		c-0.762,0-1.546,0.361-2.107,0.843v7.829H55.942z M71.799,55.348c-0.643,0-0.884-0.341-0.884-0.843v-0.321
		c-0.821,0.923-1.927,1.264-2.809,1.264c-1.808,0-2.933-1.104-2.933-2.79c0-2.53,2.65-3.171,5.741-3.313v-0.944
		c0-1.365-0.923-1.747-2.146-1.747h-2.891v-0.521c0-0.884,1.043-0.924,3.151-0.924c2.31,0,3.674,1.004,3.674,3.111v7.027H71.799z
		 M70.915,50.49c-2.75,0.06-3.854,0.663-3.854,1.947c0,1.104,0.782,1.505,1.808,1.505c0.762,0,1.524-0.341,2.046-0.823V50.49z"/>
</g>
</svg>
